<svg xmlns="http://www.w3.org/2000/svg" width="500" height="500" viewBox="0 0 500 500"><defs><linearGradient id="cloth" x2="1" y2="1"><stop stop-color="#c1baa0"/><stop offset="1" stop-color="#8f987a"/></linearGradient></defs><path d="M151 16l-93 46L0 275l71 24 49-130-8 331h276l-8-331 49 130 71-24-58-213-93-46-99 58z" fill="url(#cloth)" stroke="#899078" stroke-width="3"/><path d="M195 2l55 58 55-58 13 28-68 76-68-76z" fill="#dad3b9"/><path d="M250 66v217" stroke="#6d775e" stroke-width="4"/><g fill="#eae2c2"><circle cx="258" cy="103" r="5"/><circle cx="258" cy="141" r="5"/><circle cx="258" cy="179" r="5"/><circle cx="258" cy="217" r="5"/></g><path d="M282 108h70v74q-35 19-70 0z" fill="none" stroke="#9fa58b" stroke-width="3"/></svg>
